<svg xmlns="http://www.w3.org/2000/svg" version="1.1" xmlns:xlink="http://www.w3.org/1999/xlink" xmlns:svgjs="http://svgjs.dev/svgjs" width="128" height="128" viewBox="0 0 128 128"><g transform="matrix(0.8046875,0,0,0.8046875,12.544840205129418,8.757686430921048)"><svg viewBox="0 0 88 95" data-background-color="#ffffff" preserveAspectRatio="xMidYMid meet" height="138" width="128" xmlns="http://www.w3.org/2000/svg" xmlns:xlink="http://www.w3.org/1999/xlink"><g id="tight-bounds" transform="matrix(1,0,0,1,-0.03831007816881993,-0.24049999999999727)"><svg viewBox="0 0 88.07662015633763 95.481" height="95.481" width="88.07662015633763"><g><svg viewBox="0 0 88.07662015633763 95.481" height="95.481" width="88.07662015633763"><g><svg viewBox="0 0 88.07662015633763 95.481" height="95.481" width="88.07662015633763"><g id="textblocktransform"><svg viewBox="0 0 88.07662015633763 95.481" height="95.481" width="88.07662015633763" id="textblock"><g><svg viewBox="0 0 88.07662015633763 95.481" height="95.481" width="88.07662015633763"><g><svg viewBox="0 0 88.07662015633763 95.481" height="95.481" width="88.07662015633763"><g><svg xmlns="http://www.w3.org/2000/svg" xmlns:xlink="http://www.w3.org/1999/xlink" version="1.1" x="0" y="0" viewBox="21.927983598342294 19.569331827464055 56.14103280331538 60.86066817253595" enable-background="new 0 0 100 100" xml:space="preserve" height="95.481" width="88.07662015633763" class="icon-icon-0" data-fill-palette-color="accent" id="icon-0"><path fill="#ffffff" d="M53.98 20.19c-0.348-0.597-1.114-0.798-1.709-0.45L22.549 37.067c-0.287 0.167-0.495 0.441-0.58 0.762-0.084 0.32-0.038 0.661 0.129 0.948L46.019 79.81c0.008 0.015 0.023 0.022 0.032 0.036 0.021 0.033 0.042 0.064 0.066 0.096 0.047 0.062 0.103 0.112 0.16 0.163 0.011 0.009 0.019 0.021 0.029 0.03 0.016 0.013 0.026 0.031 0.043 0.043 0.012 0.01 0.027 0.016 0.04 0.024 0.069 0.048 0.144 0.081 0.221 0.114 0.04 0.017 0.075 0.04 0.115 0.053 0.014 0.004 0.027 0.009 0.041 0.012 0.005 0.002 0.009 0.006 0.015 0.008 0.104 0.027 0.21 0.041 0.316 0.041 0.001 0 0.001 0 0.002 0l0 0c0 0 0 0 0 0s0 0 0 0l0 0c0.097 0 0.195-0.016 0.292-0.039 0.015-0.003 0.03-0.005 0.044-0.009 0.004-0.001 0.008-0.001 0.012-0.002l28.764-8.382c0.37-0.107 0.668-0.38 0.812-0.736 0.143-0.357 0.113-0.761-0.081-1.094l-1.223-2.098 1.321-0.576c0.327-0.143 0.578-0.418 0.688-0.757s0.072-0.71-0.108-1.019l-1.256-2.154 1.084-0.633c0.287-0.167 0.495-0.441 0.58-0.762 0.084-0.32 0.038-0.661-0.129-0.948L53.98 20.19zM52.45 22.529l22.662 38.872L50.607 75.688 27.945 36.815 52.45 22.529zM25.785 38.074l22.662 38.873-0.897 0.523L24.888 38.598 25.785 38.074zM73.978 70.045l-8.419 2.453 7.854-3.422L73.978 70.045zM74.755 65.764l-8.562 3.731 8.014-4.672L74.755 65.764z" data-fill-palette-color="accent"></path><path fill="#ffffff" d="M37.829 42.262c0.232 0.398 0.651 0.62 1.081 0.62 0.214 0 0.431-0.055 0.628-0.17l12.45-7.259c0.597-0.348 0.798-1.113 0.451-1.71-0.348-0.596-1.114-0.798-1.709-0.45l-12.45 7.259C37.683 40.899 37.481 41.665 37.829 42.262z" data-fill-palette-color="accent"></path><path fill="#ffffff" d="M42.829 45.216c-0.597 0.348-0.798 1.113-0.451 1.71 0.232 0.398 0.651 0.62 1.081 0.62 0.214 0 0.431-0.055 0.628-0.17l9.719-5.667c0.597-0.348 0.798-1.113 0.451-1.71s-1.114-0.797-1.709-0.45L42.829 45.216z" data-fill-palette-color="accent"></path><path fill="#ffffff" d="M52.154 66.833c0.232 0.398 0.651 0.62 1.081 0.62 0.214 0 0.431-0.055 0.628-0.17l12.45-7.258c0.597-0.348 0.798-1.113 0.451-1.71-0.348-0.597-1.113-0.798-1.709-0.45l-12.45 7.258C52.008 65.471 51.807 66.236 52.154 66.833z" data-fill-palette-color="accent"></path></svg></g></svg></g></svg></g></svg></g></svg></g></svg></g><defs></defs></svg><rect width="88.07662015633763" height="95.481" fill="none" stroke="none" visibility="hidden"></rect></g></svg></g></svg>