<svg xmlns="http://www.w3.org/2000/svg" version="1.1" xmlns:xlink="http://www.w3.org/1999/xlink" xmlns:svgjs="http://svgjs.dev/svgjs" width="1500" height="340" viewBox="0 0 1500 340"><g transform="matrix(1,0,0,1,-0.9090909090909918,0.19530281814223827)"><svg viewBox="0 0 396 90" data-background-color="#ffffff" preserveAspectRatio="xMidYMid meet" height="340" width="1500" xmlns="http://www.w3.org/2000/svg" xmlns:xlink="http://www.w3.org/1999/xlink"><g id="tight-bounds" transform="matrix(1,0,0,1,0.2400000000000091,-0.05169780480235886)"><svg viewBox="0 0 395.52 90.1033956096047" height="90.1033956096047" width="395.52"><g><svg viewBox="0 0 526.6989298106334 119.98726243902439" height="90.1033956096047" width="395.52"><g transform="matrix(1,0,0,1,131.17892981063343,16.582899512195127)"><svg viewBox="0 0 395.52 86.82146341463414" height="86.82146341463414" width="395.52"><g id="textblocktransform"><svg viewBox="0 0 395.52 86.82146341463414" height="86.82146341463414" width="395.52" id="textblock"><g><svg viewBox="0 0 395.52 86.82146341463414" height="86.82146341463414" width="395.52"><g transform="matrix(1,0,0,1,0,0)"><svg width="395.52" viewBox="3.7 -35.5 204.99 45" height="86.82146341463414" data-palette-color="#4b91f1"><path d="M10.05 0L4.95 0Q4.4 0 4.05-0.35 3.7-0.7 3.7-1.25L3.7-1.25 3.7-33.75Q3.7-34.3 4.05-34.65 4.4-35 4.95-35L4.95-35 9.65-35Q10.4-35 10.78-34.6 11.15-34.2 11.25-34L11.25-34 20.5-17.1 29.75-34Q29.85-34.2 30.23-34.6 30.6-35 31.35-35L31.35-35 36-35Q36.55-35 36.9-34.65 37.25-34.3 37.25-33.75L37.25-33.75 37.25-1.25Q37.25-0.7 36.9-0.35 36.55 0 36 0L36 0 30.9 0Q30.4 0 30.05-0.35 29.7-0.7 29.7-1.25L29.7-1.25 29.7-21.4 23.35-9.55Q23.15-9.1 22.75-8.75 22.35-8.4 21.65-8.4L21.65-8.4 19.3-8.4Q18.65-8.4 18.25-8.75 17.85-9.1 17.6-9.55L17.6-9.55 11.3-21.4 11.3-1.25Q11.3-0.7 10.95-0.35 10.6 0 10.05 0L10.05 0ZM53.55 9.5L48.85 9.5Q48.45 9.5 48.12 9.2 47.8 8.9 47.8 8.45L47.8 8.45Q47.8 8.35 47.85 8.18 47.9 8 48 7.75L48 7.75 51.9-1.6 42.3-24.25Q42.15-24.65 42.15-24.9L42.15-24.9Q42.2-25.35 42.5-25.68 42.8-26 43.25-26L43.25-26 48.15-26Q48.75-26 49.05-25.68 49.35-25.35 49.5-25L49.5-25 55.7-9.55 62.05-25Q62.25-25.4 62.55-25.7 62.85-26 63.5-26L63.5-26 68.25-26Q68.7-26 69.02-25.68 69.35-25.35 69.35-24.95L69.35-24.95Q69.35-24.7 69.2-24.25L69.2-24.25 55.05 8.5Q54.85 8.9 54.52 9.2 54.2 9.5 53.55 9.5L53.55 9.5ZM80.9 0L75.15 0Q74.65 0 74.3-0.35 73.95-0.7 73.95-1.25L73.95-1.25 73.95-33.75Q73.95-34.3 74.3-34.65 74.65-35 75.15-35L75.15-35 88.84-35Q92.9-35 95.9-33.75 98.9-32.5 100.55-29.98 102.2-27.45 102.2-23.65L102.2-23.65Q102.2-19.9 100.55-17.43 98.9-14.95 95.9-13.75 92.9-12.55 88.84-12.55L88.84-12.55 82.15-12.55 82.15-1.25Q82.15-0.7 81.8-0.35 81.45 0 80.9 0L80.9 0ZM82.05-28.75L82.05-18.75 88.59-18.75Q91.15-18.75 92.55-20 93.95-21.25 93.95-23.7L93.95-23.7Q93.95-25.95 92.67-27.35 91.4-28.75 88.59-28.75L88.59-28.75 82.05-28.75ZM118.69 0.5L118.69 0.5Q114.54 0.5 111.74-0.88 108.94-2.25 107.47-4.8 105.99-7.35 105.84-10.75L105.84-10.75Q105.79-11.75 105.79-13.03 105.79-14.3 105.84-15.25L105.84-15.25Q105.99-18.7 107.54-21.23 109.09-23.75 111.89-25.13 114.69-26.5 118.69-26.5L118.69-26.5Q122.64-26.5 125.44-25.13 128.24-23.75 129.79-21.23 131.34-18.7 131.54-15.25L131.54-15.25Q131.59-14.3 131.59-13.03 131.59-11.75 131.54-10.75L131.54-10.75Q131.34-7.35 129.87-4.8 128.39-2.25 125.59-0.88 122.79 0.5 118.69 0.5ZM118.69-5.05L118.69-5.05Q121.14-5.05 122.37-6.55 123.59-8.05 123.74-11L123.74-11Q123.79-11.75 123.79-13 123.79-14.25 123.74-15L123.74-15Q123.59-17.9 122.37-19.43 121.14-20.95 118.69-20.95L118.69-20.95Q116.24-20.95 114.99-19.43 113.74-17.9 113.59-15L113.59-15Q113.54-14.25 113.54-13 113.54-11.75 113.59-11L113.59-11Q113.74-8.05 114.99-6.55 116.24-5.05 118.69-5.05ZM147.09 0.5L147.09 0.5Q143.99 0.5 141.77-0.23 139.54-0.95 138.17-2 136.79-3.05 136.12-4.13 135.44-5.2 135.39-5.95L135.39-5.95Q135.34-6.5 135.74-6.85 136.14-7.2 136.54-7.2L136.54-7.2 141.39-7.2Q141.59-7.2 141.72-7.15 141.84-7.1 142.04-6.9L142.04-6.9Q142.69-6.45 143.37-5.88 144.04-5.3 144.99-4.9 145.94-4.5 147.29-4.5L147.29-4.5Q148.94-4.5 150.07-5.18 151.19-5.85 151.19-7.1L151.19-7.1Q151.19-8 150.69-8.6 150.19-9.2 148.74-9.7 147.29-10.2 144.44-10.8L144.44-10.8Q141.74-11.4 139.84-12.4 137.94-13.4 136.99-14.93 136.04-16.45 136.04-18.6L136.04-18.6Q136.04-20.55 137.27-22.35 138.49-24.15 140.89-25.33 143.29-26.5 146.89-26.5L146.89-26.5Q149.64-26.5 151.72-25.83 153.79-25.15 155.19-24.13 156.59-23.1 157.32-22.03 158.04-20.95 158.09-20.15L158.09-20.15Q158.14-19.6 157.79-19.25 157.44-18.9 156.99-18.9L156.99-18.9 152.54-18.9Q152.29-18.9 152.09-19 151.89-19.1 151.74-19.25L151.74-19.25Q151.14-19.6 150.52-20.15 149.89-20.7 149.04-21.1 148.19-21.5 146.84-21.5L146.84-21.5Q145.24-21.5 144.37-20.78 143.49-20.05 143.49-18.95L143.49-18.95Q143.49-18.25 143.94-17.65 144.39-17.05 145.77-16.55 147.14-16.05 150.04-15.5L150.04-15.5Q153.44-14.9 155.44-13.7 157.44-12.5 158.29-10.93 159.14-9.35 159.14-7.55L159.14-7.55Q159.14-5.2 157.77-3.38 156.39-1.55 153.69-0.53 150.99 0.5 147.09 0.5ZM180.84 0L176.49 0Q173.39 0 171.21-1.03 169.04-2.05 167.89-4.2 166.74-6.35 166.74-9.6L166.74-9.6 166.74-20.1 162.84-20.1Q162.29-20.1 161.94-20.45 161.59-20.8 161.59-21.3L161.59-21.3 161.59-24.75Q161.59-25.3 161.94-25.65 162.29-26 162.84-26L162.84-26 166.74-26 166.74-34.25Q166.74-34.8 167.11-35.15 167.49-35.5 167.99-35.5L167.99-35.5 172.94-35.5Q173.44-35.5 173.79-35.15 174.14-34.8 174.14-34.25L174.14-34.25 174.14-26 180.39-26Q180.94-26 181.29-25.65 181.64-25.3 181.64-24.75L181.64-24.75 181.64-21.3Q181.64-20.8 181.29-20.45 180.94-20.1 180.39-20.1L180.39-20.1 174.14-20.1 174.14-10.2Q174.14-8.3 174.84-7.23 175.54-6.15 177.19-6.15L177.19-6.15 180.84-6.15Q181.39-6.15 181.74-5.8 182.09-5.45 182.09-4.95L182.09-4.95 182.09-1.25Q182.09-0.7 181.74-0.35 181.39 0 180.84 0L180.84 0ZM196.64 0.5L196.64 0.5Q193.54 0.5 191.31-0.23 189.09-0.95 187.71-2 186.34-3.05 185.66-4.13 184.99-5.2 184.94-5.95L184.94-5.95Q184.89-6.5 185.29-6.85 185.69-7.2 186.09-7.2L186.09-7.2 190.94-7.2Q191.14-7.2 191.26-7.15 191.39-7.1 191.59-6.9L191.59-6.9Q192.24-6.45 192.91-5.88 193.59-5.3 194.54-4.9 195.49-4.5 196.84-4.5L196.84-4.5Q198.49-4.5 199.61-5.18 200.74-5.85 200.74-7.1L200.74-7.1Q200.74-8 200.24-8.6 199.74-9.2 198.29-9.7 196.84-10.2 193.99-10.8L193.99-10.8Q191.29-11.4 189.39-12.4 187.49-13.4 186.54-14.93 185.59-16.45 185.59-18.6L185.59-18.6Q185.59-20.55 186.81-22.35 188.04-24.15 190.44-25.33 192.84-26.5 196.44-26.5L196.44-26.5Q199.19-26.5 201.26-25.83 203.34-25.15 204.74-24.13 206.14-23.1 206.86-22.03 207.59-20.95 207.64-20.15L207.64-20.15Q207.69-19.6 207.34-19.25 206.99-18.9 206.54-18.9L206.54-18.9 202.09-18.9Q201.84-18.9 201.64-19 201.44-19.1 201.29-19.25L201.29-19.25Q200.69-19.6 200.06-20.15 199.44-20.7 198.59-21.1 197.74-21.5 196.39-21.5L196.39-21.5Q194.79-21.5 193.91-20.78 193.04-20.05 193.04-18.95L193.04-18.95Q193.04-18.25 193.49-17.65 193.94-17.05 195.31-16.55 196.69-16.05 199.59-15.5L199.59-15.5Q202.99-14.9 204.99-13.7 206.99-12.5 207.84-10.93 208.69-9.35 208.69-7.55L208.69-7.55Q208.69-5.2 207.31-3.38 205.94-1.55 203.24-0.53 200.54 0.5 196.64 0.5Z" opacity="1" transform="matrix(1,0,0,1,0,0)" fill="#4b91f1" class="wordmark-text-0" data-fill-palette-color="primary" id="text-0"></path></svg></g></svg></g></svg></g></svg></g><g><svg viewBox="0 0 110.68246601356027 119.98726243902439" height="119.98726243902439" width="110.68246601356027"><g><svg xmlns="http://www.w3.org/2000/svg" xmlns:xlink="http://www.w3.org/1999/xlink" version="1.1" x="0" y="0" viewBox="21.927983598342294 19.569331827464055 56.14103280331538 60.86066817253595" enable-background="new 0 0 100 100" xml:space="preserve" height="119.98726243902439" width="110.68246601356027" class="icon-icon-0" data-fill-palette-color="accent" id="icon-0"><path fill="#4b91f1" d="M53.98 20.19c-0.348-0.597-1.114-0.798-1.709-0.45L22.549 37.067c-0.287 0.167-0.495 0.441-0.58 0.762-0.084 0.32-0.038 0.661 0.129 0.948L46.019 79.81c0.008 0.015 0.023 0.022 0.032 0.036 0.021 0.033 0.042 0.064 0.066 0.096 0.047 0.062 0.103 0.112 0.16 0.163 0.011 0.009 0.019 0.021 0.029 0.03 0.016 0.013 0.026 0.031 0.043 0.043 0.012 0.01 0.027 0.016 0.04 0.024 0.069 0.048 0.144 0.081 0.221 0.114 0.04 0.017 0.075 0.04 0.115 0.053 0.014 0.004 0.027 0.009 0.041 0.012 0.005 0.002 0.009 0.006 0.015 0.008 0.104 0.027 0.21 0.041 0.316 0.041 0.001 0 0.001 0 0.002 0l0 0c0 0 0 0 0 0s0 0 0 0l0 0c0.097 0 0.195-0.016 0.292-0.039 0.015-0.003 0.03-0.005 0.044-0.009 0.004-0.001 0.008-0.001 0.012-0.002l28.764-8.382c0.37-0.107 0.668-0.38 0.812-0.736 0.143-0.357 0.113-0.761-0.081-1.094l-1.223-2.098 1.321-0.576c0.327-0.143 0.578-0.418 0.688-0.757s0.072-0.71-0.108-1.019l-1.256-2.154 1.084-0.633c0.287-0.167 0.495-0.441 0.58-0.762 0.084-0.32 0.038-0.661-0.129-0.948L53.98 20.19zM52.45 22.529l22.662 38.872L50.607 75.688 27.945 36.815 52.45 22.529zM25.785 38.074l22.662 38.873-0.897 0.523L24.888 38.598 25.785 38.074zM73.978 70.045l-8.419 2.453 7.854-3.422L73.978 70.045zM74.755 65.764l-8.562 3.731 8.014-4.672L74.755 65.764z" data-fill-palette-color="accent"></path><path fill="#4b91f1" d="M37.829 42.262c0.232 0.398 0.651 0.62 1.081 0.62 0.214 0 0.431-0.055 0.628-0.17l12.45-7.259c0.597-0.348 0.798-1.113 0.451-1.71-0.348-0.596-1.114-0.798-1.709-0.45l-12.45 7.259C37.683 40.899 37.481 41.665 37.829 42.262z" data-fill-palette-color="accent"></path><path fill="#4b91f1" d="M42.829 45.216c-0.597 0.348-0.798 1.113-0.451 1.71 0.232 0.398 0.651 0.62 1.081 0.62 0.214 0 0.431-0.055 0.628-0.17l9.719-5.667c0.597-0.348 0.798-1.113 0.451-1.71s-1.114-0.797-1.709-0.45L42.829 45.216z" data-fill-palette-color="accent"></path><path fill="#4b91f1" d="M52.154 66.833c0.232 0.398 0.651 0.62 1.081 0.62 0.214 0 0.431-0.055 0.628-0.17l12.45-7.258c0.597-0.348 0.798-1.113 0.451-1.71-0.348-0.597-1.113-0.798-1.709-0.45l-12.45 7.258C52.008 65.471 51.807 66.236 52.154 66.833z" data-fill-palette-color="accent"></path></svg></g></svg></g></svg></g><defs></defs></svg><rect width="395.52" height="90.1033956096047" fill="none" stroke="none" visibility="hidden"></rect></g></svg></g></svg>